PathFileType	4	(X/Y/Z)	Exemple_fichier.trc																																																																																																																															
DataRate	CameraRate	NumFrames	NumMarkers	Units	OrigDataRate	OrigDataStartFrame	OrigNumFrames																																																																																																																											
200	200	4	43	mm	200	501	2000																																																																																																																											
Frame#	Time	LFHD			RFHD			RBHD			LBHD			C7			T10			R10			CLAV			STRN			LSHO			LUPA			LELB			LFRA			LWRA			LWRB			LFIN0			LFINx			LFINy			RSHO			RUPA			RELB			RFRA			RWRA			RWRB			RFIN0			RFINx			RFINy			LASI			RASI			RBSI			LBSI			LTHI			LKNE			LTIB			LANK			LHEE			LTOE			RTHI			RKNE			RTIB			RANK			RHEE			RTOE		
		X1	Y1	Z1	X2	Y2	Z2	X3	Y3	Z3	X4	Y4	Z4	X5	Y5	Z5	X6	Y6	Z6	X7	Y7	Z7	X8	Y8	Z8	X9	Y9	Z9	X10	Y10	Z10	X11	Y11	Z11	X12	Y12	Z12	X13	Y13	Z13	X14	Y14	Z14	X15	Y15	Z15	X16	Y16	Z16	X17	Y17	Z17	X18	Y18	Z18	X19	Y19	Z19	X20	Y20	Z20	X21	Y21	Z21	X22	Y22	Z22	X23	Y23	Z23	X24	Y24	Z24	X25	Y25	Z25	X26	Y26	Z26	X27	Y27	Z27	X28	Y28	Z28	X29	Y29	Z29	X30	Y30	Z30	X31	Y31	Z31	X32	Y32	Z32	X33	Y33	Z33	X34	Y34	Z34	X35	Y35	Z35	X36	Y36	Z36	X37	Y37	Z37	X38	Y38	Z38	X39	Y39	Z39	X40	Y40	Z40	X41	Y41	Z41	X42	Y42	Z42	X43	Y43	Z43
																																																																																																																																		
501	2.5	391.14102	264.78577	1468.854	495.61401	261.59921	1462.1073	497.42508	122.38321	1401.82385	387.3912	120.81322	1408.35364	435.16562	92.28206	1289.16113	438.96448	63.73811	1150.64404	598.75476	103.23862	1190.44629	445.50986	218.50876	1232.6178	445.0126	325.41638	1101.94861	293.37503	185.33302	1255.96814	237.72549	252.53769	1123.74377	209.80377	312.49246	992.00836	230.41452	390.17633	1070.55823	277.21964	472.8587	1136.11963	283.21698	498.05676	1096.72644	313.42233	526.38409	1121.58289	327.91672	535.91846	1133.00415	302.41812	515.88129	1153.50488	585.69434	163.88501	1265.06604	725.16144	252.90036	1167.14954	788.20551	273.76221	1121.73938	678.12048	387.47919	1184.42651				660.2691	444.19757	1205.76526	618.86176	479.11609	1224.89185	602.83417	487.80035	1233.60632	599.38202	455.69745	1217.78076	319.5889	265.68188	893.0451	553.30023	276.29721	887.87	477.11771	99.11712	912.76971	405.32205	98.90471	914.71332	340.20093	295.03113	633.81458	295.96957	159.29591	448.34937	320.76489	195.27972	323.43637	309.1264	123.98323	81.10328	356.80771	88.59882	15.27875	288.78769	328.85028	50.25377	536.33313	283.15872	556.23065	609.18945	174.79135	440.1955	587.54974	194.43619	236.76982	608.16614	144.3488	75.98301	572.12317	93.22485	14.69861	612.29321	339.26282	47.86738
502	2.505	391.25262	265.10962	1468.63196	495.59143	261.79468	1461.77783	497.40698	122.54623	1401.91516	387.51297	120.8946	1408.39709	435.13837	92.22279	1289.15063	438.92532	63.62291	1150.65771	598.68445	103.24519	1190.3501	445.49078	218.47034	1232.59851	444.95892	325.40338	1101.95081	293.32458	185.26567	1256.06738	237.67538	252.84703	1124.00964	209.53496	312.79932	992.32941	230.34854	390.34399	1070.92395	277.42804	472.88763	1136.44299	283.16702	498.2789	1097.27197	313.53314	526.44165	1121.95386	328.14444	535.73889	1133.48914	302.76352	515.87903	1153.94604	585.79968	163.86462	1264.96716	725.03064	252.86975	1166.78943	788.11249	273.58282	1121.16895	678.05994	387.49884	1183.65979				660.21271	444.30011	1204.92188	618.7619	479.21255	1223.94214	602.54822	487.8504	1232.49292	599.04071	455.68173	1216.78198	319.5184	265.63712	893.06873	553.25049	276.35703	887.83807	477.22012	99.18094	912.74579	405.36572	98.88876	914.68518	340.16928	295.00674	633.8559	295.99326	159.20911	448.3284	320.73193	195.27058	323.4422	309.1264	123.98323	81.10328	356.81689	88.54414	15.30649	288.79855	328.8754	50.31113	536.23425	283.24954	556.21118	609.11115	174.8277	440.13104	587.54169	194.46455	236.76872	608.18774	144.43994	75.99596	572.05981	93.22913	14.61631	612.29144	339.30057	47.8697
503	2.51	391.27637	265.32123	1468.50366	495.65005	261.94574	1461.62402	497.51651	122.6081	1401.97083	387.51477	121.08813	1408.41956	435.14597	92.21543	1289.1145	438.91461	63.56735	1150.62585	598.75336	103.27473	1190.27356	445.5072	218.44112	1232.56592	444.92914	325.40887	1101.90796	293.92365	184.63699	1256.00525	237.65331	253.11734	1124.30969	209.10745	313.19092	992.62897	230.23691	390.5527	1071.27515	277.5705	472.96371	1136.90417	283.19565	498.40909	1097.65283	313.71658	526.52515	1122.38049	328.3512	535.98895	1133.78723	303.056	515.83887	1154.26819	585.85077	163.90704	1264.82788	725.07196	252.85983	1166.45386	788.08984	273.53613	1120.85596	677.97931	387.55573	1182.79248				660.02734	444.39209	1204.05847	618.52698	479.21204	1222.90002	602.61359	487.95743	1231.88428	598.92444	455.60004	1215.8103	319.45636	265.57474	893.06348	553.22156	276.37234	887.86572	477.25412	99.2285	912.71704	405.34897	98.87376	914.69421	340.04541	294.98251	633.86615	295.9982	159.15135	448.33496	320.67932	195.1162	323.47098	309.1264	123.98323	81.10328	356.85556	88.61642	15.32292	288.80685	328.84091	50.29191	536.16473	283.39371	556.17432	609.06451	174.89207	440.11362	587.54822	194.49785	236.72337	608.14838	144.43889	75.96534	572.12317	93.22485	14.69861	612.34564	339.24197	47.84557
504	2.515	391.29077	265.47296	1468.37732	495.66403	262.17642	1461.39099	497.58054	122.72429	1402.06482	387.50461	121.11868	1408.51526	435.25558	92.2241	1289.13733	438.91461	63.56735	1150.62585	598.80524	103.21896	1190.20129	445.50583	218.44958	1232.54309	444.89124	325.31863	1101.90881	293.98529	184.53159	1256.02625	237.62653	253.26424	1124.42432	208.88379	313.44315	992.95184	230.1918	390.6521	1071.77759	277.77618	472.90881	1137.39026	283.13818	498.58789	1098.12366	313.97437	526.4942	1122.70496	328.57172	535.95221	1134.03259	303.46939	515.71472	1154.72021	585.90411	163.8589	1264.75464	725.0321	252.86581	1166.01062	788.00952	273.36557	1120.41895	677.85663	387.59866	1182.03735				659.9928	444.49573	1203.15991	618.37244	479.20279	1221.93115	602.16516	487.89859	1230.59937	598.78992	455.61249	1214.74792	319.4119	265.46783	893.07263	553.17987	276.47772	887.82819	477.25412	99.2285	912.71704	405.40897	98.82425	914.68927	339.99466	294.99695	633.89563	296.02936	158.96446	448.33612	320.69855	195.26822	323.46542	309.07993	123.9838	81.14502	356.80771	88.59882	15.27875	288.82492	328.89471	50.31902	536.02588	283.43472	556.13275	609.06165	175.00819	440.13525	587.54254	194.65608	236.78983	608.18304	144.37488	75.96412	572.12317	93.22485	14.69861	612.26202	339.27859	47.81538
